<?xml version="1.0" encoding="UTF-8" standalone="no"?>
<!-- Created with Inkscape (http://www.inkscape.org/) -->

<svg
   xmlns:dc="http://purl.org/dc/elements/1.1/"
   xmlns:cc="http://creativecommons.org/ns#"
   xmlns:rdf="http://www.w3.org/1999/02/22-rdf-syntax-ns#"
   xmlns:svg="http://www.w3.org/2000/svg"
   xmlns="http://www.w3.org/2000/svg"
   xmlns:sodipodi="http://sodipodi.sourceforge.net/DTD/sodipodi-0.dtd"
   xmlns:inkscape="http://www.inkscape.org/namespaces/inkscape"
   width="64"
   height="64"
   id="svg2"
   version="1.1"
   inkscape:version="0.48.2 r9819"
   sodipodi:docname="favicon.svg"
   inkscape:export-filename="D:\Dev\ultramarined.by\img-src\favicon.png"
   inkscape:export-xdpi="14.4"
   inkscape:export-ydpi="14.4">
  <defs
     id="defs4" />
  <sodipodi:namedview
     id="base"
     pagecolor="#ffffff"
     bordercolor="#666666"
     borderopacity="1.0"
     inkscape:pageopacity="0.0"
     inkscape:pageshadow="2"
     inkscape:zoom="11.2"
     inkscape:cx="24.438234"
     inkscape:cy="37.145699"
     inkscape:document-units="px"
     inkscape:current-layer="layer1"
     showgrid="false"
     fit-margin-top="0"
     fit-margin-left="0"
     fit-margin-right="0"
     fit-margin-bottom="0"
     inkscape:window-width="1592"
     inkscape:window-height="1028"
     inkscape:window-x="1360"
     inkscape:window-y="-8"
     inkscape:window-maximized="1">
    <inkscape:grid
       type="xygrid"
       id="grid3003"
       empspacing="5"
       visible="true"
       enabled="true"
       snapvisiblegridlinesonly="true" />
  </sodipodi:namedview>
  <metadata
     id="metadata7">
    <rdf:RDF>
      <cc:Work
         rdf:about="">
        <dc:format>image/svg+xml</dc:format>
        <dc:type
           rdf:resource="http://purl.org/dc/dcmitype/StillImage" />
        <dc:title />
      </cc:Work>
    </rdf:RDF>
  </metadata>
  <g
     inkscape:groupmode="layer"
     id="layer2"
     inkscape:label="text"
     style="display:none"
     transform="translate(0,-36.000006)">
    <text
       sodipodi:linespacing="125%"
       id="text2993"
       y="86.413315"
       x="11.58404"
       style="font-size:56.96442413px;font-style:normal;font-variant:normal;font-weight:normal;font-stretch:normal;text-align:start;line-height:125%;letter-spacing:0px;word-spacing:0px;writing-mode:lr-tb;text-anchor:start;fill:#ffffff;fill-opacity:1;stroke:none;font-family:Serif;-inkscape-font-specification:Serif"
       xml:space="preserve"><tspan
         y="86.413315"
         x="11.58404"
         id="tspan2995"
         sodipodi:role="line">U</tspan></text>
  </g>
  <g
     inkscape:label="path"
     inkscape:groupmode="layer"
     id="layer1"
     transform="translate(0,-988.36218)"
     style="display:inline">
    <rect
       style="fill:#572fce;fill-opacity:1;stroke:none"
       id="rect2985"
       width="64"
       height="64"
       x="0"
       y="988.36218" />
    <g
       style="font-size:89.00782776px;font-style:normal;font-variant:normal;font-weight:normal;font-stretch:normal;text-align:start;line-height:125%;letter-spacing:0px;word-spacing:0px;writing-mode:lr-tb;text-anchor:start;fill:#ffffff;fill-opacity:1;stroke:none;font-family:Serif;-inkscape-font-specification:Serif"
       id="text3755"
       transform="matrix(0.64,0,0,0.64,0,378.85038)">
      <path
         d="m 60.560987,973.80844 0,-1.60806 20.86121,0 0,1.60806 -2.216504,0 c -2.317971,5e-5 -4.099864,0.97068 -5.345685,2.91187 -0.608507,0.89825 -0.912733,2.98437 -0.912678,6.25837 l 0,23.90342 c -5.5e-5,5.9107 -0.586775,10.4959 -1.760164,13.7554 -1.173495,3.2596 -3.476918,6.0556 -6.910276,8.3879 -3.43345,2.3324 -8.105487,3.4986 -14.016125,3.4986 -6.432232,0 -11.31433,-1.1154 -14.646308,-3.3464 -3.332013,-2.231 -5.693383,-5.2298 -7.084119,-8.9964 -0.927174,-2.5787 -1.390756,-7.4173 -1.390747,-14.516 l 0,-23.03421 c -9e-6,-3.62169 -0.499808,-5.99754 -1.4994,-7.12758 -0.999606,-1.12993 -2.614899,-1.69492 -4.845885,-1.69497 l -2.216503,0 0,-1.60806 25.46806,0 0,1.60806 -2.259965,0 c -2.433829,5e-5 -4.172261,0.76786 -5.215302,2.30342 -0.724365,1.04311 -1.086539,3.21616 -1.086521,6.51913 l 0,25.68541 c -1.8e-5,2.2889 0.210043,4.911 0.630182,7.8664 0.420103,2.9553 1.180667,5.2587 2.281695,6.9102 1.100987,1.6516 2.687306,3.0133 4.758963,4.0854 2.071607,1.072 4.614065,1.608 7.62738,1.608 3.853493,0 7.301383,-0.8402 10.343683,-2.5207 3.042214,-1.6805 5.121089,-3.8318 6.236633,-6.454 1.115445,-2.6221 1.673192,-7.0623 1.673243,-13.3207 l 0,-23.86001 c -5.1e-5,-3.67964 -0.405686,-5.98306 -1.216904,-6.91028 -1.130031,-1.27479 -2.810516,-1.91222 -5.041459,-1.91227 z"
         id="path3001"
         inkscape:connector-curvature="0" />
    </g>
  </g>
</svg>
