<?xml version="1.0" encoding="UTF-8" standalone="no"?>
<!-- Created with Inkscape (http://www.inkscape.org/) -->

<svg
   xmlns:dc="http://purl.org/dc/elements/1.1/"
   xmlns:cc="http://creativecommons.org/ns#"
   xmlns:rdf="http://www.w3.org/1999/02/22-rdf-syntax-ns#"
   xmlns:svg="http://www.w3.org/2000/svg"
   xmlns="http://www.w3.org/2000/svg"
   xmlns:sodipodi="http://sodipodi.sourceforge.net/DTD/sodipodi-0.dtd"
   xmlns:inkscape="http://www.inkscape.org/namespaces/inkscape"
   width="500"
   height="100.00004"
   id="svg3297"
   version="1.1"
   inkscape:version="0.91 r13725"
   sodipodi:docname="social-icons.svg">
  <defs
     id="defs3299">
    <clipPath
       id="clipPath18"
       clipPathUnits="userSpaceOnUse">
      <path
         inkscape:connector-curvature="0"
         id="path20-7"
         d="M 0,2221.78 0,0 l 2733.9,0 0,2221.78 -2733.9,0 z" />
    </clipPath>
  </defs>
  <sodipodi:namedview
     id="base"
     pagecolor="#ffffff"
     bordercolor="#666666"
     borderopacity="1.0"
     inkscape:pageopacity="0.0"
     inkscape:pageshadow="2"
     inkscape:zoom="2"
     inkscape:cx="250.85584"
     inkscape:cy="38.184362"
     inkscape:document-units="px"
     inkscape:current-layer="layer1"
     showgrid="false"
     fit-margin-top="0"
     fit-margin-left="0"
     fit-margin-right="0"
     fit-margin-bottom="0"
     inkscape:window-width="1834"
     inkscape:window-height="1058"
     inkscape:window-x="1758"
     inkscape:window-y="-8"
     inkscape:window-maximized="1" />
  <metadata
     id="metadata3302">
    <rdf:RDF>
      <cc:Work
         rdf:about="">
        <dc:format>image/svg+xml</dc:format>
        <dc:type
           rdf:resource="http://purl.org/dc/dcmitype/StillImage" />
        <dc:title></dc:title>
      </cc:Work>
    </rdf:RDF>
  </metadata>
  <g
     inkscape:label="Layer 1"
     inkscape:groupmode="layer"
     id="layer1"
     transform="translate(0,-952.36216)">
    <g
       id="g3041">
      <path
         d="m 0,1052.3622 100,0 0,-100 -100,0 0,100 z"
         style="fill:#cf282a;fill-opacity:1;fill-rule:nonzero;stroke:none"
         id="path14"
         inkscape:connector-curvature="0" />
      <path
         d="m 43.036677,962.13237 -4.554212,0 -3.072681,11.81117 -3.196087,-11.81117 -4.741713,0 c 0.948503,2.78527 1.939064,5.58911 2.888235,8.37835 1.443048,4.19581 2.345903,7.3566 2.752883,9.51687 l 0,12.18271 4.505382,0 0,-12.18271 5.418193,-17.89522 z m 12.039399,22.82085 0,-7.85287 c 0,-2.39382 -0.41095,-4.14406 -1.262585,-5.27993 -1.12539,-1.52997 -2.703662,-2.29695 -4.738139,-2.29695 -2.023065,0 -3.607175,0.76698 -4.7299,2.29695 -0.865043,1.13587 -1.272013,2.88611 -1.272013,5.27993 l 0,7.85287 c 0,2.3832 0.40697,4.14804 1.272013,5.27329 1.122725,1.52732 2.706835,2.2943 4.7299,2.2943 2.034477,0 3.612749,-0.76698 4.738139,-2.2943 0.851635,-1.12525 1.262585,-2.89009 1.262585,-5.27329 z m -4.064303,0.76565 c 0,2.0727 -0.627116,3.11037 -1.936421,3.11037 -1.311417,0 -1.940125,-1.03767 -1.940125,-3.11037 l 0,-9.43194 c 0,-2.07402 0.628708,-3.10639 1.940125,-3.10639 1.309305,0 1.936421,1.03237 1.936421,3.10639 l 0,9.43194 z m 19.085227,6.49143 0,-22.4148 -4.062722,0 0,17.13222 c -0.902324,1.27122 -1.755021,1.90152 -2.56671,1.90152 -0.546437,0 -0.863047,-0.32112 -0.951156,-0.95142 -0.05032,-0.13137 -0.05032,-0.62765 -0.05032,-1.58173 l 0,-16.50059 -4.049315,0 0,17.72404 c 0,1.58172 0.137334,2.65522 0.361854,3.33329 0.403795,1.13587 1.30612,1.66798 2.615021,1.66798 1.480874,0 3.022385,-0.901 4.640603,-2.75607 l 0,2.44556 4.062711,0"
         style="fill:#ffffff;fill-opacity:1;fill-rule:nonzero;stroke:none"
         id="path16"
         inkscape:connector-curvature="0" />
      <path
         d="m 83.254082,1019.4154 c 0,5.1844 -0.0042,10.6859 -1.166249,15.7217 -0.81223,3.535 -3.704574,6.1424 -7.187812,6.5339 -8.247385,0.9209 -16.596276,0.9262 -24.90416,0.9209 -8.310547,0.01 -16.657315,0 -24.904156,-0.9209 -3.483642,-0.3915 -6.375985,-2.9989 -7.187812,-6.5339 -1.157364,-5.0358 -1.157364,-10.5373 -1.157364,-15.7217 0,-5.191 0.01146,-10.6819 1.17143,-15.7243 0.811689,-3.5337 3.704043,-6.14381 7.187281,-6.53128 8.247244,-0.92356 16.59467,-0.92488 24.904156,-0.92356 8.307884,-10e-4 16.656775,0 24.904022,0.92356 3.4843,0.38747 6.376654,2.99758 7.187812,6.53128 1.158032,5.0424 1.152852,10.5333 1.152852,15.7243"
         style="fill:#ffffff;fill-opacity:1;fill-rule:nonzero;stroke:none"
         id="path18"
         inkscape:connector-curvature="0" />
      <path
         d="m 35.717232,1008.2266 0,-4.1932 -14.015879,0 0,4.1932 4.728712,0 0,25.5769 4.469691,0 0,-25.5769 4.817476,0 z m 8.119202,25.5769 0,-2.419 c -1.594864,1.8325 -3.113158,2.7255 -4.591378,2.7255 -1.295897,0 -2.18906,-0.5255 -2.58861,-1.6507 -0.221335,-0.6741 -0.355622,-1.7304 -0.355622,-3.2975 l 0,-17.5409 4.017606,0 0,16.3321 c 0,0.9395 0,1.4331 0.03684,1.5631 0.09798,0.6224 0.402723,0.9382 0.940275,0.9382 0.805988,0 1.652974,-0.6224 2.54084,-1.879 l 0,-16.9544 4.024368,0 0,22.1826 -4.024368,0 z m 15.273968,-6.3388 c 0,2.0036 -0.590492,2.9896 -1.748918,2.9896 -0.660427,0 -1.332128,-0.3158 -2.003957,-0.986 l 0,-13.5216 c 0.671829,-0.6608 1.34353,-0.9779 2.003957,-0.9779 1.158426,0 1.748918,1.0284 1.748918,3.0281 l 0,9.4678 z m 4.017595,-0.3159 0,-8.8348 c 0,-2.0979 -0.137334,-3.5681 -0.404847,-4.4598 -0.53649,-1.6614 -1.610915,-2.5027 -3.21321,-2.5027 -1.476224,0 -2.852938,0.8095 -4.152413,2.4045 l 0,-9.7226 -4.018136,0 0,29.7701 4.018136,0 0,-2.1497 c 1.34353,1.6614 2.722367,2.4562 4.152413,2.4562 1.602295,0 2.67672,-0.8426 3.21321,-2.4933 0.267513,-0.9382 0.404847,-2.4177 0.404847,-4.4679 z m 11.150482,-7.05 -4.016545,0 0,-2.0502 c 0,-2.0514 0.672232,-3.0798 2.016303,-3.0798 1.327479,0 2.000242,1.0284 2.000242,3.0798 l 0,2.0502 z m 4.02131,6.6082 0,-0.5852 -4.10425,0 c 0,1.6136 -0.0482,2.5 -0.08493,2.7202 -0.231812,1.0735 -0.810234,1.6123 -1.798142,1.6123 -1.378306,0 -2.050538,-1.0231 -2.050538,-3.0772 l 0,-3.9304 8.037855,0 0,-4.5939 c 0,-2.3726 -0.404846,-4.1069 -1.246662,-5.2269 -1.125252,-1.5207 -2.724362,-2.2744 -4.740655,-2.2744 -2.050538,0 -3.654818,0.7537 -4.81284,2.2744 -0.856285,1.12 -1.241896,2.8543 -1.241896,5.2269 l 0,7.7706 c 0,2.3513 0.436969,4.1055 1.290197,5.2122 1.160018,1.5167 2.759521,2.2744 4.866576,2.2744 2.097778,0 3.746113,-0.7948 4.859953,-2.4044 0.485663,-0.7113 0.800807,-1.5207 0.936687,-2.4084 0.03726,-0.4047 0.08864,-1.2978 0.08864,-2.5902"
         style="fill:#cf282a;fill-opacity:1;fill-rule:nonzero;stroke:none"
         id="path20"
         inkscape:connector-curvature="0" />
    </g>
    <g
       id="g3047">
      <path
         d="m 100,1052.3622 100,0 0,-100.00002 -100,0 0,100.00002 z"
         style="fill:#3d529e;fill-opacity:1;fill-rule:nonzero;stroke:none"
         id="path100"
         inkscape:connector-curvature="0" />
      <path
         d="m 187.212,1012.2235 1.97333,-15.30663 -15.15733,0 0,-9.77202 c 0,-4.432 1.236,-7.452 7.59067,-7.452 l 8.09866,-0.004 0,-13.69067 c -1.39866,-0.18666 -6.20533,-0.60266 -11.808,-0.60266 -11.688,0 -19.684,7.13466 -19.684,20.23466 l 0,11.28664 -13.21866,0 0,15.30668 13.21866,0 0,39.2747 15.80267,0 0,-39.2747 13.184,0"
         style="fill:#ffffff;fill-opacity:1;fill-rule:nonzero;stroke:none"
         id="path102"
         inkscape:connector-curvature="0" />
    </g>
    <g
       id="g3051">
      <path
         d="m 200,1052.3622 100,0 0,-100.00004 -100,0 0,100.00004 z"
         style="fill:#d51007;fill-opacity:1;fill-rule:nonzero;stroke:none"
         id="path100-7"
         inkscape:connector-curvature="0" />
      <path
         id="path4"
         d="m 209.49235,1001.3547 q 0,-9.85894 6.97343,-16.8324 6.97343,-6.97343 16.83241,-6.97343 7.45436,0 13.19541,3.81732 5.74106,3.8173 8.80696,10.85093 0.90173,2.16407 7.75493,18.03468 1.26243,2.8856 2.25434,4.4185 0.99191,1.533 2.94567,2.7052 1.95377,1.1723 4.7792,1.2925 l 0.42081,0 q 4.02776,0 6.67285,-2.1641 2.76532,-2.2844 2.82544,-5.7711 0,-1.6232 -0.48092,-2.7053 -0.48093,-1.082 -1.77342,-1.9237 -1.29249,-0.8415 -2.43469,-1.2924 -1.14219,-0.4509 -3.54682,-1.2325 -7.51448,-2.4647 -10.82083,-5.38024 -3.30638,-2.91569 -3.30638,-8.14579 0,-5.47047 3.45666,-8.74679 3.45666,-3.27632 9.40811,-3.27632 7.6347,0 11.48211,6.91333 l -5.04971,2.58492 q -2.70522,-3.72716 -6.73297,-3.72716 -2.76533,0 -4.59886,1.71329 -1.83352,1.71328 -1.83352,4.35848 0,0.78144 0.12022,1.47275 0.12023,0.69132 0.51099,1.23242 0.39075,0.54102 0.72139,0.96187 0.33064,0.42076 1.05202,0.87166 0.72139,0.45089 1.20232,0.69131 0.48092,0.24043 1.50289,0.63123 1.02196,0.39072 1.59307,0.57106 0.5711,0.18043 1.89364,0.60123 1.32255,0.42077 1.98382,0.60111 6.4925,2.16424 9.28789,5.04974 2.79538,2.8856 2.79538,8.4162 0,6.0115 -4.5688,9.9792 -4.50868,3.9075 -11.18153,3.9075 l -0.18035,0 q -6.01157,0 -9.67863,-2.7953 -3.66706,-2.7954 -6.19193,-8.4463 l -0.84162,-1.9838 -7.63469,-17.3134 q -1.98383,-4.62891 -6.2821,-7.45436 -4.29827,-2.82541 -9.52835,-2.82541 -7.15377,0 -12.23355,5.07972 -5.07978,5.07988 -5.07978,12.23365 0,7.1537 5.07978,12.2336 5.07978,5.0797 12.23355,5.0797 4.9295,0 9.01737,-2.5549 4.08786,-2.5549 6.31215,-6.763 l 3.0659,7.0936 q -3.30636,4.0879 -8.11562,6.4024 -4.80927,2.3144 -10.2798,2.3144 -9.85898,0 -16.83241,-6.9734 -6.97343,-6.9734 -6.97343,-16.8324 z"
         inkscape:connector-curvature="0"
         style="fill:#ffffff" />
    </g>
    <g
       id="g3055">
      <rect
         y="952.36218"
         x="300"
         height="100"
         width="100"
         id="rect4132"
         style="fill:#4d71a9;fill-opacity:1;stroke:none" />
      <path
         sodipodi:nodetypes="ccscccsccccscccsccscccscccscccscccscccscc"
         inkscape:connector-curvature="0"
         id="rect3780"
         d="m 326.84243,972.40518 0,63.17572 25.18359,0 c 4.36578,0 7.96166,-0.3985 10.79149,-1.1912 2.83124,-0.7903 5.42939,-2.1248 7.79443,-3.9916 2.00074,-1.5554 3.59356,-3.5176 4.77655,-5.8933 1.18251,-2.3762 1.76909,-5.1367 1.76909,-8.2758 0,-4.2984 -1.16883,-7.7086 -3.50697,-10.2401 -2.33766,-2.5307 -5.44775,-4.216 -9.33457,-5.0365 l 0,-0.3345 c 2.7043,-1.13049 4.82285,-2.9035 6.35833,-5.30812 1.53454,-2.40362 2.29982,-5.14088 2.29982,-8.2235 0,-2.65856 -0.55234,-5.00537 -1.66502,-7.04275 -1.11315,-2.03644 -2.79346,-3.66349 -5.04713,-4.87976 -2.08521,-1.13147 -4.32115,-1.87221 -6.70174,-2.22568 -2.38062,-0.35394 -5.87952,-0.53291 -10.50012,-0.53291 z m 15.71373,11.57769 1.10308,0 c 2.81662,0 4.93611,0.0196 6.35834,0.0626 1.4227,0.0426 2.65098,0.28988 3.69429,0.7419 1.09852,0.48233 1.9028,1.26648 2.4247,2.3406 0.52142,1.07556 0.79088,2.11702 0.79088,3.13477 0,1.38685 -0.24003,2.60058 -0.71804,3.64672 -0.47989,1.04761 -1.35449,1.87238 -2.62242,2.466 -1.15515,0.53782 -2.27692,0.83089 -3.36128,0.88824 -1.08437,0.0566 -2.97761,0.0831 -5.68192,0.0831 l -1.98763,0 z m 0,24.18983 2.9138,0 c 2.81662,0 5.06728,0.02 6.74338,0.063 1.67562,0.042 2.98614,0.2496 3.94404,0.6164 1.57748,0.5662 2.77003,1.3943 3.559,2.4974 0.78898,1.1034 1.17593,2.6346 1.17593,4.5872 0,1.5266 -0.32751,2.8945 -0.98861,4.096 -0.66156,1.2016 -1.71582,2.1061 -3.15314,2.7272 -1.63411,0.708 -3.24025,1.094 -4.8182,1.1495 -1.57747,0.058 -4.42184,0.084 -8.53327,0.084 l -0.84293,0 z"
         style="fill:#ffffff;fill-opacity:1;stroke:none" />
    </g>
    <rect
       style="fill:#55acee;fill-opacity:1;stroke:none;stroke-width:2;stroke-linecap:round;stroke-linejoin:miter;stroke-miterlimit:4;stroke-dasharray:none;stroke-opacity:1"
       id="rect4147"
       width="100"
       height="100"
       x="400"
       y="952.36218"
       inkscape:export-filename="D:\Dev\ultramarined.by\img\social-tw.png"
       inkscape:export-xdpi="90"
       inkscape:export-ydpi="90" />
    <path
       inkscape:connector-curvature="0"
       id="path22"
       style="fill:#ffffff;fill-opacity:1;fill-rule:nonzero;stroke:none"
       d="m 483.37152,982.39949 c -2.43992,1.08208 -5.062,1.81332 -7.81408,2.14229 2.8091,-1.68385 4.96618,-4.35006 5.98202,-7.52712 -2.62862,1.55916 -5.54031,2.69138 -8.63926,3.30165 -2.48189,-2.64408 -6.01767,-4.29641 -9.93066,-4.29641 -7.51379,0 -13.60544,6.09138 -13.60544,13.60466 0,1.06637 0.12056,2.10473 0.35245,3.10048 -11.30709,-0.56734 -21.33183,-5.98378 -28.04213,-14.21483 -1.17111,2.00942 -1.84184,4.34627 -1.84184,6.83979 0,4.71994 2.4018,8.88424 6.05234,11.32391 -2.23012,-0.0702 -4.3279,-0.68264 -6.16227,-1.7016 -9.7e-4,0.0566 -9.7e-4,0.11355 -9.7e-4,0.17103 0,6.59176 4.68966,12.09056 10.91349,13.34036 -1.14163,0.3109 -2.34365,0.4771 -3.58429,0.4771 -0.87674,0 -1.72899,-0.085 -2.55966,-0.2441 1.73124,5.4053 6.75556,9.3387 12.70901,9.4484 -4.65621,3.6489 -10.52248,5.8239 -16.8965,5.8239 -1.09816,0 -2.18114,-0.065 -3.24548,-0.1898 6.0209,3.86 13.17215,6.1122 20.85525,6.1122 25.02451,0 38.70878,-20.7309 38.70878,-38.70924 0,-0.58987 -0.013,-1.17661 -0.0393,-1.75995 2.65798,-1.9182 4.96471,-4.31445 6.78877,-7.04272"
       inkscape:export-filename="D:\Dev\ultramarined.by\img\social-tw.png"
       inkscape:export-xdpi="90"
       inkscape:export-ydpi="90" />
  </g>
</svg>
